<svg width="3504" height="1168" viewBox="0 0 3504 1168" fill="none" xmlns="http://www.w3.org/2000/svg">
<path d="M218.647 514.949C21.6873 450.14 -19.1956 294.813 122.853 121.633C90.6996 272.028 297.351 367.919 297.351 367.919C297.351 367.919 535.295 458.912 524.4 599.684C513.505 740.456 443.326 752.522 310.095 819.419C461.677 677.583 415.606 579.758 218.647 514.949Z" fill="#DC6B19"/>
<path d="M359.46 272.302C293.223 250.009 198.693 106.883 122.148 122.68C257.636 -19.9147 396.883 29.0438 449.194 95.6002C535.77 225.333 425.697 294.594 359.46 272.302Z" fill="#DC6B19"/>
<path d="M163.903 691.453C209.812 717.59 248.983 808.784 311.875 818.87C173.418 856.518 77.4002 800.556 52.7305 756.214C16.5362 673.347 117.993 665.315 163.903 691.453Z" fill="#DC6B19"/>
<path d="M743.671 759.874C743.671 782.639 749.209 794.022 760.285 794.022C771.362 794.022 782.146 788.331 792.639 776.948L799.635 788.331C778.065 819.444 752.707 835 723.559 835C702.573 835 687.416 828.17 678.089 814.511C668.762 800.093 664.098 776.948 664.098 745.076V519.697C664.098 509.073 660.309 503.762 652.731 503.762H625.623L623 491.24C634.659 478.34 649.233 467.716 666.721 459.369C684.21 451.021 701.699 446.848 719.187 446.848C726.183 446.848 732.012 449.124 736.676 453.677C741.339 458.23 743.671 464.301 743.671 471.89V759.874ZM655.354 337.573C655.354 323.914 661.183 308.737 672.842 292.042C684.502 275.347 695.286 267 705.196 267C715.69 267 726.766 275.347 738.425 292.042C750.667 308.737 756.788 323.914 756.788 337.573C756.788 351.991 750.667 367.548 738.425 384.242C726.766 400.178 715.69 408.146 705.196 408.146C695.286 408.146 684.502 400.178 672.842 384.242C661.183 367.548 655.354 351.991 655.354 337.573Z" fill="#DC6B19"/>
<path d="M1123.1 759.874C1123.1 782.639 1128.64 794.022 1139.71 794.022C1150.79 794.022 1161.57 788.331 1172.07 776.948L1179.06 788.331C1157.49 819.444 1132.13 835 1102.99 835C1082 835 1066.84 828.17 1057.52 814.511C1048.77 800.093 1044.4 776.948 1044.4 745.076V570.92C1044.4 526.906 1033.62 504.9 1012.05 504.9C991.06 504.9 973.862 523.492 960.455 560.675C947.63 597.859 941.217 646.426 941.217 706.375C941.217 729.14 942.674 747.732 945.589 762.15C948.504 775.81 953.168 789.089 959.58 801.99L966.576 813.373L959.58 824.755H832.788L827.541 805.405L839.783 801.99C849.111 798.955 855.232 794.401 858.146 788.331C861.061 781.501 862.518 768.601 862.518 749.629V527.665C862.518 513.247 858.729 506.038 851.151 506.038H823.169L820.546 493.517C832.205 480.617 846.779 469.993 864.267 461.645C881.756 453.298 899.244 449.124 916.733 449.124C924.311 449.124 930.141 451.401 934.222 455.954C938.885 460.507 941.217 466.578 941.217 474.166V572.058C949.378 536.392 963.952 506.797 984.939 483.273C1005.92 458.989 1028.08 446.848 1051.4 446.848C1076.46 446.848 1094.53 457.472 1105.61 478.719C1117.27 499.967 1123.1 533.736 1123.1 580.026V759.874Z" fill="#DC6B19"/>
<path d="M1363.92 798.575C1382.58 798.575 1397.15 783.019 1407.64 751.906C1418.72 720.034 1424.26 680.194 1424.26 632.387C1424.26 567.884 1413.76 517.041 1392.78 479.858L1384.91 467.337L1391.9 458.23L1465.36 446.848C1467.1 479.478 1467.98 505.659 1467.98 525.389C1467.98 622.522 1456.61 698.407 1433.88 753.044C1411.14 807.681 1380.54 835 1342.06 835C1311.75 835 1288.72 823.238 1272.98 799.713C1257.82 776.189 1247.04 737.488 1240.63 683.609L1222.26 519.697C1221.68 513.627 1220.52 509.453 1218.77 507.176C1217.02 504.9 1214.39 503.762 1210.9 503.762H1187.29L1184.66 491.24C1196.32 477.581 1210.31 466.957 1226.64 459.369C1242.96 451.021 1258.99 446.848 1274.73 446.848C1283.47 446.848 1289.6 450.262 1293.09 457.092C1297.17 463.922 1300.38 477.581 1302.71 498.07L1325.45 701.822C1329.53 739.005 1334.19 764.427 1339.44 778.086C1344.68 791.745 1352.85 798.575 1363.92 798.575Z" fill="#DC6B19"/>
<path d="M1633.47 759.874C1633.47 782.639 1639.01 794.022 1650.09 794.022C1661.16 794.022 1671.95 788.331 1682.44 776.948L1689.43 788.331C1667.87 819.444 1642.51 835 1613.36 835C1592.37 835 1577.22 828.17 1567.89 814.511C1558.56 800.093 1553.9 776.948 1553.9 745.076V519.697C1553.9 509.073 1550.11 503.762 1542.53 503.762H1515.42L1512.8 491.24C1524.46 478.34 1539.03 467.716 1556.52 459.369C1574.01 451.021 1591.5 446.848 1608.99 446.848C1615.98 446.848 1621.81 449.124 1626.48 453.677C1631.14 458.23 1633.47 464.301 1633.47 471.89V759.874ZM1545.15 337.573C1545.15 323.914 1550.98 308.737 1562.64 292.042C1574.3 275.347 1585.09 267 1595 267C1605.49 267 1616.57 275.347 1628.22 292.042C1640.47 308.737 1646.59 323.914 1646.59 337.573C1646.59 351.991 1640.47 367.548 1628.22 384.242C1616.57 400.178 1605.49 408.146 1595 408.146C1585.09 408.146 1574.3 400.178 1562.64 384.242C1550.98 367.548 1545.15 351.991 1545.15 337.573Z" fill="#DC6B19"/>
<path d="M1805.66 835C1781.76 835 1764.56 828.17 1754.07 814.511C1743.57 800.093 1738.33 776.948 1738.33 745.076V503.762H1694.61C1694.61 490.861 1695.19 482.514 1696.36 478.719C1697.52 474.925 1701.02 471.89 1706.85 469.613C1726.09 462.784 1741.24 452.16 1752.32 437.741C1763.39 423.323 1772.43 402.455 1779.43 375.136C1781.17 366.789 1784.09 361.856 1788.17 360.339C1792.25 358.062 1802.16 356.924 1817.9 356.924V459.369H1889.6C1889.6 469.234 1888.44 478.34 1886.11 486.687C1883.77 494.276 1880.57 499.967 1876.49 503.762H1817.9V759.874C1817.9 782.639 1825.19 794.022 1839.76 794.022C1846.17 794.022 1853.17 791.366 1860.75 786.054C1868.91 780.742 1876.2 773.533 1882.61 764.427L1889.6 775.81C1864.54 815.27 1836.56 835 1805.66 835Z" fill="#DC6B19"/>
<path d="M2016.66 573.196C2004.42 582.303 1989.85 586.856 1972.94 586.856C1960.7 586.856 1951.08 582.303 1944.09 573.196C1937.09 563.331 1933.59 549.672 1933.59 532.218C1933.59 506.417 1943.21 485.929 1962.45 470.751C1982.27 454.816 2007.92 446.848 2039.4 446.848C2076.71 446.848 2105.85 457.472 2126.84 478.719C2148.41 499.967 2159.19 528.804 2159.19 565.228V762.15C2159.19 783.398 2165.02 794.022 2176.68 794.022C2187.76 794.022 2198.54 788.331 2209.04 776.948L2216.03 788.331C2194.46 819.444 2168.81 835 2139.08 835C2121.59 835 2108.19 829.309 2098.86 817.926C2090.11 806.543 2084.87 788.71 2083.12 764.427H2079.62C2070.29 786.433 2057.76 803.887 2042.02 816.788C2026.86 828.929 2009.38 835 1989.56 835C1967.4 835 1949.62 826.273 1936.22 808.82C1922.81 790.607 1916.1 767.083 1916.1 738.246C1916.1 705.616 1928.05 679.815 1951.95 660.844C1975.86 641.872 2008.21 632.387 2049.02 632.387C2056.59 632.387 2067.38 633.146 2081.37 634.663V577.749C2081.37 540.566 2077.87 514.006 2070.88 498.07C2063.88 481.375 2052.51 473.028 2036.77 473.028C2025.7 473.028 2016.95 477.581 2010.54 486.687C2004.13 495.794 2000.92 507.556 2000.92 521.974C2000.92 544.739 2006.17 561.814 2016.66 573.196ZM2029.78 778.086C2064.17 778.086 2081.37 737.488 2081.37 656.291C2052.22 656.291 2030.36 662.741 2015.79 675.641C2001.21 687.783 1993.93 705.236 1993.93 728.002C1993.93 743.179 1997.13 755.321 2003.55 764.427C2009.96 773.533 2018.7 778.086 2029.78 778.086Z" fill="#DC6B19"/>
<path d="M2332.54 835C2308.64 835 2291.44 828.17 2280.95 814.511C2270.45 800.093 2265.21 776.948 2265.21 745.076V503.762H2221.48C2221.48 490.861 2222.07 482.514 2223.23 478.719C2224.4 474.925 2227.9 471.89 2233.73 469.613C2252.96 462.784 2268.12 452.16 2279.2 437.741C2290.27 423.323 2299.31 402.455 2306.3 375.136C2308.05 366.789 2310.97 361.856 2315.05 360.339C2319.13 358.062 2329.04 356.924 2344.78 356.924V459.369H2416.48C2416.48 469.234 2415.32 478.34 2412.98 486.687C2410.65 494.276 2407.45 499.967 2403.37 503.762H2344.78V759.874C2344.78 782.639 2352.07 794.022 2366.64 794.022C2373.05 794.022 2380.05 791.366 2387.63 786.054C2395.79 780.742 2403.07 773.533 2409.49 764.427L2416.48 775.81C2391.41 815.27 2363.43 835 2332.54 835Z" fill="#DC6B19"/>
<path d="M2553.16 759.874C2553.16 782.639 2558.7 794.022 2569.77 794.022C2580.85 794.022 2591.63 788.331 2602.13 776.948L2609.12 788.331C2587.55 819.444 2562.19 835 2533.05 835C2512.06 835 2496.9 828.17 2487.58 814.511C2478.25 800.093 2473.59 776.948 2473.59 745.076V519.697C2473.59 509.073 2469.8 503.762 2462.22 503.762H2435.11L2432.49 491.24C2444.15 478.34 2458.72 467.716 2476.21 459.369C2493.7 451.021 2511.19 446.848 2528.68 446.848C2535.67 446.848 2541.5 449.124 2546.16 453.677C2550.83 458.23 2553.16 464.301 2553.16 471.89V759.874ZM2464.84 337.573C2464.84 323.914 2470.67 308.737 2482.33 292.042C2493.99 275.347 2504.77 267 2514.68 267C2525.18 267 2536.25 275.347 2547.91 292.042C2560.15 308.737 2566.28 323.914 2566.28 337.573C2566.28 351.991 2560.15 367.548 2547.91 384.242C2536.25 400.178 2525.18 408.146 2514.68 408.146C2504.77 408.146 2493.99 400.178 2482.33 384.242C2470.67 367.548 2464.84 351.991 2464.84 337.573Z" fill="#DC6B19"/>
<path d="M2628.28 641.493C2628.28 581.544 2641.4 534.116 2667.63 499.208C2694.45 464.301 2730.59 446.848 2776.06 446.848C2821.53 446.848 2857.68 464.681 2884.49 500.347C2911.31 535.254 2924.72 582.303 2924.72 641.493C2924.72 700.683 2911.31 747.732 2884.49 782.639C2857.68 817.546 2821.53 835 2776.06 835C2730.59 835 2694.45 817.546 2667.63 782.639C2641.4 747.732 2628.28 700.683 2628.28 641.493ZM2836.4 643.77C2836.4 592.926 2830.86 551.569 2819.78 519.697C2808.71 487.067 2794.72 470.751 2777.81 470.751C2759.16 470.751 2744 486.687 2732.34 518.559C2720.68 549.672 2714.85 590.65 2714.85 641.493C2714.85 693.095 2720.1 734.073 2730.59 764.427C2741.67 794.781 2756.24 809.958 2774.31 809.958C2792.39 809.958 2807.25 794.781 2818.91 764.427C2830.57 733.314 2836.4 693.095 2836.4 643.77Z" fill="#DC6B19"/>
<path d="M3269.04 759.874C3269.04 782.639 3274.57 794.022 3285.65 794.022C3296.73 794.022 3307.51 788.331 3318 776.948L3325 788.331C3303.43 819.444 3278.07 835 3248.92 835C3227.94 835 3212.78 828.17 3203.45 814.511C3194.71 800.093 3190.34 776.948 3190.34 745.076V570.92C3190.34 526.906 3179.55 504.9 3157.98 504.9C3137 504.9 3119.8 523.492 3106.39 560.675C3093.57 597.859 3087.16 646.426 3087.16 706.375C3087.16 729.14 3088.61 747.732 3091.53 762.15C3094.44 775.81 3099.11 789.089 3105.52 801.99L3112.51 813.373L3105.52 824.755H2978.73L2973.48 805.405L2985.72 801.99C2995.05 798.955 3001.17 794.401 3004.08 788.331C3007 781.501 3008.46 768.601 3008.46 749.629V527.665C3008.46 513.247 3004.67 506.038 2997.09 506.038H2969.11L2966.48 493.517C2978.14 480.617 2992.72 469.993 3010.21 461.645C3027.69 453.298 3045.18 449.124 3062.67 449.124C3070.25 449.124 3076.08 451.401 3080.16 455.954C3084.82 460.507 3087.16 466.578 3087.16 474.166V572.058C3095.32 536.392 3109.89 506.797 3130.88 483.273C3151.86 458.989 3174.02 446.848 3197.33 446.848C3222.4 446.848 3240.47 457.472 3251.55 478.719C3263.21 499.967 3269.04 533.736 3269.04 580.026V759.874Z" fill="#DC6B19"/>
<path d="M650.5 1108.5C849.153 980.13 975.368 920.467 1294.5 891C1604.2 869.028 1899.63 939.564 2487 1106.5C3132.84 1253.08 3633.82 874.443 3441.5 480.5C3678.5 847.5 3211.5 1310.5 2487 1125.5C1762.5 940.5 1572.28 892.135 1294.5 913.5C985.244 930.39 910 969.088 650.5 1108.5Z" fill="#DC6B19"/>
</svg>
