<svg width="111" height="111" viewBox="0 0 111 111" fill="none" xmlns="http://www.w3.org/2000/svg">
<circle cx="55.5" cy="55.5" r="55.5" fill="#33D951"/>
<circle cx="55.5" cy="55.5" r="29.5" stroke="white" stroke-width="6"/>
<path d="M24.0764 85.1959L28.5926 68.3524C29.8325 74.0185 34.2371 79.6695 39.9397 82.2197L24.0764 85.1959Z" stroke="white" stroke-width="6"/>
<path d="M29 78.5C30.9479 72.7848 31.104 69.439 31.5 65L49.5 81C41.5 79 40.5 78.5 32 80.5L29 78.5Z" fill="#33D951"/>
<path d="M37.908 49.7534C38.0833 46.1144 37.9997 44.242 40.2446 41.4082C41.0379 40.4068 41.9628 39.8189 43.9164 39.7393C45.4716 39.7635 46.1207 40.2865 46.9206 42.0759L48.5897 45.7476C49.2026 46.9376 49.137 47.9633 47.9221 50.7547C47.0158 52.6439 46.8569 53.4396 47.5883 54.0927L56.2672 62.104C58.3263 63.7161 59.4008 63.0659 61.2743 61.1026C63.0207 58.934 64.1199 58.6893 65.9475 59.7674L68.618 61.1026C72.0735 62.7106 72.6236 64.1067 71.2602 67.4025C69.8967 70.6982 65.7199 71.528 58.9377 70.1152C54.5981 69.4476 37.5946 55.0641 37.908 49.7534Z" fill="white"/>
</svg>
